<?xml version="1.0" encoding="windows-1252"?>
<!-- Generator: Adobe Illustrator 19.0.0, SVG Export Plug-In . SVG Version: 6.00 Build 0)  -->
<svg xmlns="http://www.w3.org/2000/svg" xmlns:xlink="http://www.w3.org/1999/xlink" version="1.1" id="Layer_1" x="0px" y="0px" viewBox="0 0 512 512" style="enable-background:new 0 0 512 512;" xml:space="preserve" width="512" height="512">
<g id="XMLID_2117_">
	<g id="XMLID_2118_">
		<g id="XMLID_2119_">
			<path id="XMLID_2120_" style="fill:#E29C6D;" d="M495.63,495.639c-11.82,11.83-30.98,11.83-42.8,0l-86.05-86.04l-76.12-76.12     l42.81-42.81l76.12,76.12l86.04,86.05C507.46,464.659,507.46,483.819,495.63,495.639z"/>
			<path id="XMLID_2121_" style="fill:#C97F4C;" d="M501.45,487.459c-1.42,2.96-3.37,5.73-5.82,8.18     c-11.82,11.83-30.98,11.83-42.8,0l-86.05-86.04l-76.12-76.12l14-14l76.12,76.12l86.05,86.04     C476.2,491.009,490.17,492.959,501.45,487.459z"/>
			<path id="XMLID_2124_" style="fill:#618BAA;" d="M501.45,487.459c-1.42,2.96-3.37,5.73-5.82,8.18     c-11.82,11.83-30.98,11.83-42.8,0l-86.05-86.04l42.81-42.81l86.04,86.05C505,462.209,506.95,476.179,501.45,487.459z"/>
			<path id="XMLID_2127_" style="fill:#4E7693;" d="M501.45,487.459c-1.42,2.96-3.37,5.73-5.82,8.18     c-11.82,11.83-30.98,11.83-42.8,0l-86.05-86.04l14-14l86.05,86.04C476.2,491.009,490.17,492.959,501.45,487.459z"/>
			<circle id="XMLID_2366_" style="fill:#BDDFF4;" cx="201.029" cy="201.038" r="193.529"/>
			<path id="XMLID_2363_" style="fill:#ADC9E2;" d="M201.029,379.22c-98.25,0-178.183-79.932-178.183-178.183     c0-98.25,79.933-178.182,178.183-178.182s178.183,79.932,178.183,178.182C379.212,299.288,299.279,379.22,201.029,379.22z"/>
			<circle id="XMLID_2360_" style="fill:#43A3F9;" cx="201.029" cy="201.038" r="164.423"/>
		</g>
	</g>
	<g id="XMLID_2128_">
		<path id="XMLID_2132_" d="M500.938,447.535l-34.773-34.773c-2.93-2.929-7.678-2.929-10.607,0c-2.929,2.929-2.929,7.678,0,10.606    l34.773,34.773c4.301,4.3,6.669,10.018,6.669,16.1s-2.368,11.799-6.669,16.1c-4.3,4.3-10.018,6.668-16.099,6.668    c-6.082,0-11.8-2.368-16.1-6.668l-80.746-80.746l32.199-32.199l21.562,21.562c1.465,1.464,3.385,2.197,5.304,2.197    s3.839-0.732,5.304-2.197c2.929-2.929,2.929-7.678,0-10.606l-74.453-74.452c21.924-32.197,34.755-71.057,34.755-112.861    c0-47.817-17.086-94.156-48.109-130.48c-2.689-3.15-7.424-3.522-10.574-0.833c-3.149,2.69-3.522,7.424-0.832,10.574    c28.706,33.611,44.516,76.49,44.516,120.739c0,102.577-83.452,186.029-186.028,186.029C98.452,387.066,15,303.614,15,201.038    S98.452,15.009,201.029,15.009c42.864,0,84.701,14.936,117.805,42.056c3.203,2.624,7.93,2.157,10.555-1.049    c2.625-3.204,2.155-7.93-1.049-10.555C292.563,16.151,247.35,0.009,201.029,0.009C90.182,0.009,0,90.19,0,201.038    s90.182,201.029,201.029,201.029c41.804,0,80.664-12.832,112.861-34.755l133.635,133.636c7.363,7.363,17.035,11.044,26.706,11.044    c9.672,0,19.344-3.682,26.707-11.044c7.133-7.133,11.062-16.618,11.062-26.706S508.071,454.668,500.938,447.535z M366.78,398.987    l-10.796-10.796l32.198-32.199l10.796,10.796L366.78,398.987z M358.296,326.106l19.28,19.279l-32.198,32.199l-19.28-19.28    C338.002,348.817,348.809,338.011,358.296,326.106z"/>
		<path id="XMLID_2136_" d="M217.293,372.161c0.245,0,0.493-0.012,0.742-0.037c42.257-4.152,81.348-23.789,110.072-55.292    c28.919-31.717,44.845-72.84,44.845-115.794c0-94.799-77.124-171.923-171.923-171.923S29.105,106.239,29.105,201.038    c0,42.591,15.691,83.454,44.184,115.061c28.278,31.369,66.87,51.187,108.666,55.803c4.125,0.453,7.824-2.514,8.278-6.631    c0.454-4.117-2.515-7.823-6.632-8.278c-38.138-4.212-73.357-22.302-99.171-50.938c-26.004-28.847-40.325-66.143-40.325-105.018    c0-86.528,70.396-156.923,156.924-156.923c86.527,0,156.923,70.396,156.923,156.923c0,39.206-14.535,76.74-40.929,105.688    c-26.221,28.758-61.896,46.683-100.455,50.471c-4.122,0.405-7.136,4.075-6.73,8.197    C210.219,369.267,213.48,372.161,217.293,372.161z"/>
		<path id="XMLID_2137_" d="M142.026,129.79c0-10.608-8.631-19.239-19.239-19.239s-19.239,8.63-19.239,19.239v14.305    c0,10.608,8.631,19.239,19.239,19.239s19.239-8.631,19.239-19.239V129.79z M127.026,144.094c0,2.337-1.901,4.239-4.239,4.239    s-4.239-1.902-4.239-4.239V129.79c0-2.337,1.901-4.239,4.239-4.239s4.239,1.901,4.239,4.239V144.094z"/>
		<path id="XMLID_2140_" d="M241.479,163.333c10.608,0,19.239-8.631,19.239-19.239V129.79c0-10.608-8.631-19.239-19.239-19.239    s-19.239,8.63-19.239,19.239v14.305C222.24,154.703,230.871,163.333,241.479,163.333z M237.24,129.79    c0-2.337,1.901-4.239,4.239-4.239s4.239,1.901,4.239,4.239v14.305c0,2.337-1.901,4.239-4.239,4.239s-4.239-1.902-4.239-4.239    V129.79z"/>
		<path id="XMLID_2143_" d="M172.334,148.491V118.79c0.012-0.487,0.002-0.857-0.008-1.074c-0.18-4.016-3.489-7.165-7.489-7.165    c-0.057,0-0.113,0-0.171,0.002c-4.075,0.091-7.332,3.421-7.332,7.498v0.546c-0.021,0.277-0.082,0.72-0.176,1.089    c-3.913,0.253-7.009,3.507-7.009,7.484c0,4.037,3.188,7.328,7.185,7.494v13.829c-3.403,0.711-5.959,3.726-5.959,7.34    c0,4.142,3.357,7.5,7.5,7.5h11.926c4.143,0,7.5-3.358,7.5-7.5C178.301,152.217,175.741,149.199,172.334,148.491z"/>
		<path id="XMLID_2144_" d="M207.94,117.716c-0.182-4.073-3.612-7.283-7.659-7.164c-4.076,0.091-7.333,3.421-7.333,7.498v0.443    c-0.017,0.386-0.087,0.838-0.178,1.193c-3.912,0.253-7.008,3.507-7.008,7.484c0,4.037,3.189,7.329,7.186,7.494v13.829    c-3.403,0.71-5.96,3.726-5.96,7.34c0,4.142,3.357,7.5,7.5,7.5h11.927c4.143,0,7.5-3.358,7.5-7.5c0-3.617-2.56-6.634-5.967-7.342    v-29.705C207.96,118.301,207.95,117.933,207.94,117.716z"/>
		<path id="XMLID_2145_" d="M292.535,117.715c-0.18-4.016-3.489-7.165-7.489-7.165c-0.057,0-0.113,0-0.171,0.002    c-4.075,0.091-7.332,3.421-7.332,7.498v0.546c-0.021,0.277-0.082,0.72-0.176,1.089c-3.913,0.253-7.009,3.507-7.009,7.484    c0,4.037,3.188,7.328,7.185,7.494v13.829c-3.403,0.711-5.959,3.726-5.959,7.34c0,4.142,3.357,7.5,7.5,7.5h11.926    c4.143,0,7.5-3.358,7.5-7.5c0-3.617-2.56-6.634-5.967-7.342V118.79C292.555,118.302,292.545,117.933,292.535,117.715z"/>
		<path id="XMLID_2146_" d="M142.026,193.885c0-10.608-8.631-19.239-19.239-19.239s-19.239,8.63-19.239,19.239v14.305    c0,10.608,8.631,19.239,19.239,19.239s19.239-8.63,19.239-19.239V193.885z M127.026,208.19c0,2.337-1.901,4.239-4.239,4.239    s-4.239-1.901-4.239-4.239v-14.305c0-2.337,1.901-4.239,4.239-4.239s4.239,1.901,4.239,4.239V208.19z"/>
		<path id="XMLID_2149_" d="M222.24,208.19c0,10.608,8.631,19.239,19.239,19.239s19.239-8.63,19.239-19.239v-14.305    c0-10.608-8.631-19.239-19.239-19.239s-19.239,8.63-19.239,19.239V208.19z M237.24,193.885c0-2.337,1.901-4.239,4.239-4.239    s4.239,1.901,4.239,4.239v14.305c0,2.337-1.901,4.239-4.239,4.239s-4.239-1.901-4.239-4.239V193.885z"/>
		<path id="XMLID_2152_" d="M172.334,212.587v-29.701c0.012-0.487,0.002-0.857-0.008-1.074c-0.18-4.016-3.489-7.165-7.489-7.165    c-0.057,0-0.113,0-0.171,0.002c-4.075,0.091-7.332,3.421-7.332,7.498v0.546c-0.021,0.277-0.082,0.72-0.176,1.089    c-3.913,0.253-7.009,3.507-7.009,7.484c0,4.037,3.188,7.328,7.185,7.494v13.828c-3.403,0.711-5.959,3.726-5.959,7.34    c0,4.142,3.357,7.5,7.5,7.5h11.926c4.143,0,7.5-3.358,7.5-7.5C178.301,216.312,175.741,213.294,172.334,212.587z"/>
		<path id="XMLID_2153_" d="M192.948,198.76v13.828c-3.403,0.71-5.96,3.726-5.96,7.34c0,4.142,3.357,7.5,7.5,7.5h11.927    c4.143,0,7.5-3.358,7.5-7.5c0-3.617-2.56-6.634-5.967-7.342v-29.704c0.012-0.485,0.002-0.854-0.008-1.07    c-0.182-4.073-3.612-7.276-7.659-7.164c-4.076,0.091-7.333,3.421-7.333,7.498v0.443c-0.017,0.386-0.087,0.838-0.178,1.193    c-3.912,0.253-7.008,3.507-7.008,7.484C185.763,195.303,188.952,198.595,192.948,198.76z"/>
		<path id="XMLID_2154_" d="M277.543,198.76v13.828c-3.403,0.711-5.959,3.726-5.959,7.34c0,4.142,3.357,7.5,7.5,7.5h11.926    c4.143,0,7.5-3.358,7.5-7.5c0-3.617-2.56-6.634-5.967-7.342v-29.701c0.012-0.487,0.002-0.857-0.008-1.074    c-0.18-4.016-3.489-7.165-7.489-7.165c-0.057,0-0.113,0-0.171,0.002c-4.075,0.091-7.332,3.421-7.332,7.498v0.546    c-0.021,0.277-0.082,0.72-0.176,1.089c-3.913,0.253-7.009,3.507-7.009,7.484C270.358,195.303,273.547,198.595,277.543,198.76z"/>
		<path id="XMLID_2155_" d="M122.787,238.742c-10.608,0-19.239,8.631-19.239,19.239v14.305c0,10.608,8.631,19.239,19.239,19.239    s19.239-8.63,19.239-19.239v-14.305C142.026,247.373,133.396,238.742,122.787,238.742z M127.026,272.286    c0,2.337-1.901,4.239-4.239,4.239s-4.239-1.901-4.239-4.239v-14.305c0-2.337,1.901-4.239,4.239-4.239s4.239,1.902,4.239,4.239    V272.286z"/>
		<path id="XMLID_2158_" d="M222.24,272.286c0,10.608,8.631,19.239,19.239,19.239s19.239-8.63,19.239-19.239v-14.305    c0-10.608-8.631-19.239-19.239-19.239s-19.239,8.631-19.239,19.239V272.286z M237.24,257.981c0-2.337,1.901-4.239,4.239-4.239    s4.239,1.902,4.239,4.239v14.305c0,2.337-1.901,4.239-4.239,4.239s-4.239-1.901-4.239-4.239V257.981z"/>
		<path id="XMLID_2161_" d="M151.375,284.024c0,4.142,3.357,7.5,7.5,7.5h11.926c4.143,0,7.5-3.358,7.5-7.5    c0-3.617-2.56-6.634-5.967-7.342V246.98c0.012-0.487,0.002-0.857-0.008-1.074c-0.18-4.016-3.489-7.165-7.489-7.165    c-0.057,0-0.113,0-0.171,0.002c-4.075,0.091-7.332,3.421-7.332,7.498v0.445c-0.017,0.385-0.087,0.836-0.178,1.192    c-3.912,0.253-7.007,3.507-7.007,7.484c0,4.037,3.188,7.328,7.185,7.494v13.828C153.931,277.395,151.375,280.411,151.375,284.024z    "/>
		<path id="XMLID_2162_" d="M186.988,284.024c0,4.142,3.357,7.5,7.5,7.5h11.927c4.143,0,7.5-3.358,7.5-7.5    c0-3.617-2.56-6.634-5.967-7.342v-29.705c0.012-0.485,0.002-0.854-0.008-1.07c-0.182-4.073-3.612-7.27-7.659-7.164    c-4.076,0.091-7.333,3.421-7.333,7.498v0.545c-0.021,0.277-0.082,0.721-0.176,1.091c-3.914,0.253-7.01,3.507-7.01,7.484    c0,4.037,3.189,7.329,7.186,7.494v13.828C189.545,277.395,186.988,280.41,186.988,284.024z"/>
		<path id="XMLID_2163_" d="M277.543,262.856v13.828c-3.403,0.711-5.959,3.726-5.959,7.34c0,4.142,3.357,7.5,7.5,7.5h11.926    c4.143,0,7.5-3.358,7.5-7.5c0-3.617-2.56-6.634-5.967-7.342V246.98c0.012-0.487,0.002-0.857-0.008-1.074    c-0.18-4.016-3.489-7.165-7.489-7.165c-0.057,0-0.113,0-0.171,0.002c-4.075,0.091-7.332,3.421-7.332,7.498v0.445    c-0.017,0.385-0.087,0.836-0.178,1.192c-3.912,0.253-7.007,3.507-7.007,7.484C270.358,259.399,273.547,262.69,277.543,262.856z"/>
	</g>
</g>















</svg>